<svg xmlns="http://www.w3.org/2000/svg" width="280" height="277" viewBox="0 0 280 277" xmlns:xlink="http://www.w3.org/1999/xlink">
  <defs>
    <path id="a" d="M61.4909455,1.72221687 C24.4845759,12.037156 0,30.3545972 0,54.959066 C0,94.4546881 63.0902891,117.7503 139.790024,117.7503 C216.489759,117.7503 279.580048,94.4546881 279.580048,54.959066 C279.580048,30.1296932 254.64581,11.7028098 217.071172,1.4413643 L187.222272,31.2902636 C199.482147,33.3372057 210.622708,36.1703095 220.07678,39.661154 C229.353,43.0863282 236.436438,46.9577866 240.771395,50.7421479 C242.42556,52.1862125 243.500157,53.4619224 244.053855,54.4610391 C244.28566,54.8793179 244.31479,54.9852294 244.31479,54.959066 C244.31479,54.9329026 244.28566,55.0388141 244.053855,55.4570929 C243.500157,56.4562096 242.42556,57.7319195 240.771395,59.1759841 C236.436438,62.9603455 229.353,66.8318038 220.07678,70.2569781 C199.402474,77.8908091 170.663107,82.3792193 139.790024,82.3792193 C108.916941,82.3792193 80.1775743,77.8908091 59.5032683,70.2569781 C50.2270477,66.8318038 43.1436098,62.9603455 38.8086534,59.1759841 C37.1544886,57.7319195 36.0798911,56.4562096 35.5261929,55.4570929 C35.2943879,55.0388141 35.2652583,54.9329026 35.2652583,54.959066 C35.2652583,54.9852294 35.2943879,54.8793179 35.5261929,54.4610391 C36.0798911,53.4619224 37.1544886,52.1862125 38.8086534,50.7421479 C43.1436098,46.9577866 50.2270477,43.0863282 59.5032683,39.661154 C68.6710513,36.2760195 79.4247292,33.5093933 91.2471082,31.4783796 L61.4909455,1.72221687 Z"/>
  </defs>
  <g fill="none" fill-rule="evenodd" transform="translate(0 -1)">
    <g transform="translate(0 159.296)">
      <mask id="b" fill="white">
        <use xlink:href="#a"/>
      </mask>
      <use fill="#D0021B" fill-rule="nonzero" xlink:href="#a"/>
      <path fill="#000000" fill-opacity=".186" d="M139.29777,82.1745996 C212.334512,82.1745996 271.542489,53.2521058 271.542489,15.1590345 C271.542489,-22.9340368 212.334512,-53.8145725 139.29777,-53.8145725 C66.261029,-53.8145725 7.05305166,-22.9340368 7.05305166,15.1590345 C7.05305166,53.2521058 66.261029,82.1745996 139.29777,82.1745996 Z" mask="url(#b)"/>
    </g>
    <polygon fill="#D0021B" fill-rule="nonzero" points="58.216 87.451 37 108.603 137.966 209.871 240.315 107.215 219.1 86.063 137.966 167.441"/>
    <polygon fill="#D0021B" fill-rule="nonzero" points="58.216 2.561 37 23.713 137.966 124.981 240.315 22.324 219.1 1.172 137.966 82.55"/>
  </g>
</svg>
