<svg xmlns="http://www.w3.org/2000/svg" width="512" height="142" viewBox="0 0 512 142" xmlns:xlink="http://www.w3.org/1999/xlink">
  <defs>
    <path id="a" d="M31.4043043,0.879560757 C12.5046227,6.14754751 0,15.5025265 0,28.0683801 C0,48.2393586 32.2211119,60.1367603 71.3927623,60.1367603 C110.564413,60.1367603 142.785525,48.2393586 142.785525,28.0683801 C142.785525,15.3876647 130.051253,5.97679217 110.861348,0.736125341 L95.6170891,15.9803846 C101.878382,17.0257872 107.568026,18.4726938 112.396355,20.2555179 C117.133854,22.0048033 120.751467,23.9820124 122.965391,25.9147398 C123.810196,26.6522442 124.359009,27.3037675 124.64179,27.8140307 C124.760176,28.0276517 124.775053,28.0817422 124.775053,28.0683801 C124.775053,28.0550181 124.760176,28.1091086 124.64179,28.3227296 C124.359009,28.8329928 123.810196,29.484516 122.965391,30.2220205 C120.751467,32.1547479 117.133854,34.131957 112.396355,35.8812424 C101.837692,39.7799489 87.1600868,42.0722442 71.3927623,42.0722442 C55.6254377,42.0722442 40.9478326,39.7799489 30.3891692,35.8812424 C25.6516708,34.131957 22.0340579,32.1547479 19.8201337,30.2220205 C18.9753281,29.484516 18.4265158,28.8329928 18.1437343,28.3227296 C18.0253481,28.1091086 18.0104712,28.0550181 18.0104712,28.0683801 C18.0104712,28.0817422 18.0253481,28.0276517 18.1437343,27.8140307 C18.4265158,27.3037675 18.9753281,26.6522442 19.8201337,25.9147398 C22.0340579,23.9820124 25.6516708,22.0048033 30.3891692,20.2555179 C35.0712869,18.5266814 40.5633438,17.1137259 46.6012017,16.0764582 L31.4043043,0.879560757 Z"/>
  </defs>
  <g fill="none" fill-rule="evenodd">
    <g transform="translate(0 81.355)">
      <mask id="b" fill="white">
        <use xlink:href="#a"/>
      </mask>
      <use fill="#D0021B" fill-rule="nonzero" xlink:href="#a"/>
      <path fill="#000000" fill-opacity=".186" d="M71.1413613,41.9677419 C108.442268,41.9677419 138.680628,27.1966112 138.680628,7.74193548 C138.680628,-11.7127402 108.442268,-27.483871 71.1413613,-27.483871 C33.8404541,-27.483871 3.60209424,-11.7127402 3.60209424,7.74193548 C3.60209424,27.1966112 33.8404541,41.9677419 71.1413613,41.9677419 Z" mask="url(#b)"/>
    </g>
    <polygon fill="#D0021B" fill-rule="nonzero" points="29.732 44.663 18.897 55.465 70.461 107.184 122.732 54.756 111.897 43.954 70.461 85.514"/>
    <polygon fill="#D0021B" fill-rule="nonzero" points="29.732 1.308 18.897 12.11 70.461 63.829 122.732 11.401 111.897 .599 70.461 42.16"/>
    <path fill="#222222" d="M196.452801,36.9967991 C197.854408,36.9967991 199.063996,36.8192009 200.081601,36.4639991 C201.099206,36.1087973 201.934398,35.6192022 202.587201,34.995199 C203.240004,34.3711959 203.719999,33.6368032 204.027201,32.791999 C204.334403,31.9471947 204.488001,31.0256039 204.488001,30.0271988 C204.488001,28.0495889 203.830408,26.5136042 202.515201,25.4191987 C201.199994,24.3247932 199.198414,23.7775986 196.510401,23.7775986 L192.017601,23.7775986 L192.017601,36.9967991 L196.452801,36.9967991 Z M216.699201,59 L208.894401,59 C207.435194,59 206.379204,58.4432055 205.726401,57.3295999 L197.777601,44.5135994 C197.451199,44.0143969 197.091203,43.6496005 196.697601,43.4191994 C196.303999,43.1887982 195.723205,43.0735994 194.955201,43.0735994 L192.017601,43.0735994 L192.017601,59 L183.3776,59 L183.3776,17.2111983 L196.510401,17.2111983 C199.428815,17.2111983 201.924791,17.5135953 203.998401,18.1183984 C206.072011,18.7232014 207.771195,19.5631931 209.096001,20.6383985 C210.420808,21.7136039 211.390398,22.9951911 212.004801,24.4831986 C212.619204,25.9712061 212.926401,27.6079898 212.926401,29.3935988 C212.926401,30.7760058 212.729603,32.0863927 212.336001,33.324799 C211.942399,34.5632052 211.371205,35.691194 210.622401,36.7087991 C209.873597,37.7264042 208.952007,38.6287953 207.857601,39.4159992 C206.763196,40.2032032 205.515208,40.8367969 204.113601,41.3167993 C204.670404,41.6240008 205.188799,41.9935972 205.668801,42.4255993 C206.148803,42.8576015 206.580799,43.3711964 206.964801,43.9663994 L216.699201,59 Z M231.286402,23.9791986 L231.286402,34.721599 L245.225603,34.721599 L245.225603,41.2591993 L231.286402,41.2591993 L231.286402,52.2319997 L249.200003,52.2319997 L249.200003,59 L222.588802,59 L222.588802,17.2111983 L249.200003,17.2111983 L249.200003,23.9791986 L231.286402,23.9791986 Z M279.512004,43.1311994 L274.990404,30.3439989 C274.721602,29.6719955 274.438405,28.8848033 274.140804,27.9823988 C273.843202,27.0799942 273.560005,26.100804 273.291204,25.0447987 C273.022402,26.1200041 272.739205,27.1135942 272.441604,28.0255988 C272.144002,28.9376034 271.860805,29.7295955 271.592004,30.4015989 L267.099204,43.1311994 L279.512004,43.1311994 Z M294.027205,59 L287.316804,59 C286.568001,59 285.958407,58.8224018 285.488004,58.4672 C285.017602,58.1119982 284.667205,57.6560027 284.436804,57.0991999 L281.614404,49.1215996 L264.968003,49.1215996 L262.145603,57.0991999 C261.953602,57.5792023 261.617606,58.015998 261.137603,58.4096 C260.657601,58.803202 260.052807,59 259.323203,59 L252.555203,59 L268.884804,17.2111983 L277.726404,17.2111983 L294.027205,59 Z M326.844806,48.7183996 C327.324808,48.7183996 327.728004,48.8911979 328.054406,49.2367996 L331.481606,52.8943998 C329.791998,55.0448106 327.694418,56.6767943 325.188806,57.7904 C322.683193,58.9040056 319.702423,59.4608 316.246405,59.4608 C313.11679,59.4608 310.304018,58.9280053 307.808005,57.8624 C305.311993,56.7967946 303.190414,55.3136094 301.443205,53.4127998 C299.695996,51.5119902 298.352009,49.2560127 297.411205,46.6447995 C296.4704,44.0335863 296.000005,41.1824147 296.000005,38.0911992 C296.000005,36.0175887 296.225602,34.0448084 296.676805,32.1727989 C297.128007,30.3007895 297.7856,28.5776067 298.649605,27.0031987 C299.513609,25.4287908 300.555199,24.0080049 301.774405,22.7407986 C302.993611,21.4735922 304.371197,20.3936029 305.907205,19.5007984 C307.443213,18.6079939 309.118396,17.9264007 310.932805,17.4559983 C312.747214,16.985596 314.681595,16.7503983 316.736005,16.7503983 C318.272013,16.7503983 319.726399,16.884797 321.099206,17.1535983 C322.472013,17.4223997 323.7536,17.796796 324.944006,18.2767984 C326.134412,18.7568008 327.233601,19.337595 328.241606,20.0191985 C329.249611,20.7008019 330.156802,21.4447945 330.963206,22.2511985 L328.054406,26.2255987 C327.881605,26.4752 327.660807,26.6959978 327.392006,26.8879987 C327.123205,27.0799997 326.758408,27.1759987 326.297606,27.1759987 C325.836804,27.1759987 325.371208,27.0128004 324.900806,26.6863987 C324.430403,26.3599971 323.854409,25.9952007 323.172806,25.5919987 C322.491202,25.1887966 321.636811,24.8240003 320.609606,24.4975986 C319.5824,24.171197 318.281613,24.0079986 316.707205,24.0079986 C314.959997,24.0079986 313.356813,24.3247955 311.897605,24.9583986 C310.438398,25.5920018 309.18561,26.5087927 308.139205,27.7087988 C307.0928,28.9088048 306.281608,30.3823901 305.705605,32.1295989 C305.129602,33.8768077 304.841605,35.8639879 304.841605,38.0911992 C304.841605,40.3376105 305.153602,42.3391906 305.777605,44.0959994 C306.401608,45.8528083 307.256,47.3359935 308.340805,48.5455996 C309.425611,49.7552057 310.692798,50.6719965 312.142405,51.2959997 C313.592013,51.9200028 315.142397,52.2319997 316.793605,52.2319997 C317.77281,52.2319997 318.660802,52.1840002 319.457606,52.0879997 C320.25441,51.9919992 320.993602,51.8288009 321.675206,51.5983997 C322.356809,51.3679985 323.000003,51.0704015 323.604806,50.7055997 C324.209609,50.3407978 324.819203,49.8800024 325.433606,49.3231996 C325.644807,49.1503987 325.865605,49.0064002 326.096006,48.8911996 C326.326407,48.775999 326.576005,48.7183996 326.844806,48.7183996 Z M367.726407,24.1807986 L355.515207,24.1807986 L355.515207,59 L346.846407,59 L346.846407,24.1807986 L334.635206,24.1807986 L334.635206,17.2111983 L367.726407,17.2111983 L367.726407,24.1807986 Z M220.846402,107.091199 C220.846402,110.144015 220.332807,112.951987 219.305602,115.5152 C218.278396,118.078412 216.828811,120.28159 214.956801,122.1248 C213.084792,123.968009 210.833614,125.407995 208.203201,126.4448 C205.572788,127.481605 202.654417,128 199.448001,128 L183.3776,128 L183.3776,86.2111983 L199.448001,86.2111983 C202.654417,86.2111983 205.572788,86.7295932 208.203201,87.7663984 C210.833614,88.8032036 213.084792,90.2479892 214.956801,92.1007986 C216.828811,93.9536079 218.278396,96.156786 219.305602,98.7103988 C220.332807,101.264012 220.846402,104.057584 220.846402,107.091199 Z M211.976001,107.091199 C211.976001,104.902388 211.688004,102.934408 211.112001,101.187199 C210.535998,99.4399901 209.710407,97.9616049 208.635201,96.7519988 C207.559996,95.5423927 206.249609,94.6112019 204.704001,93.9583986 C203.158393,93.3055954 201.406411,92.9791986 199.448001,92.9791986 L192.075201,92.9791986 L192.075201,121.232 L199.448001,121.232 C201.406411,121.232 203.158393,120.910403 204.704001,120.2672 C206.249609,119.623996 207.559996,118.692806 208.635201,117.4736 C209.710407,116.254393 210.535998,114.771208 211.112001,113.023999 C211.688004,111.276791 211.976001,109.29921 211.976001,107.091199 Z M242.086403,105.996799 C243.48801,105.996799 244.697598,105.819201 245.715203,105.463999 C246.732808,105.108797 247.567999,104.619202 248.220803,103.995199 C248.873606,103.371196 249.353601,102.636803 249.660803,101.791999 C249.968004,100.947195 250.121603,100.025604 250.121603,99.0271988 C250.121603,97.0495889 249.464009,95.5136042 248.148803,94.4191987 C246.833596,93.3247932 244.832016,92.7775986 242.144003,92.7775986 L237.651202,92.7775986 L237.651202,105.996799 L242.086403,105.996799 Z M262.332803,128 L254.528003,128 C253.068796,128 252.012806,127.443206 251.360003,126.3296 L243.411203,113.513599 C243.084801,113.014397 242.724805,112.649601 242.331203,112.419199 C241.937601,112.188798 241.356806,112.073599 240.588802,112.073599 L237.651202,112.073599 L237.651202,128 L229.011202,128 L229.011202,86.2111983 L242.144003,86.2111983 C245.062417,86.2111983 247.558392,86.5135953 249.632003,87.1183984 C251.705613,87.7232014 253.404796,88.5631931 254.729603,89.6383985 C256.05441,90.7136039 257.024,91.9951911 257.638403,93.4831986 C258.252806,94.9712061 258.560003,96.6079898 258.560003,98.3935988 C258.560003,99.7760058 258.363205,101.086393 257.969603,102.324799 C257.576001,103.563205 257.004807,104.691194 256.256003,105.708799 C255.507199,106.726404 254.585608,107.628795 253.491203,108.415999 C252.396797,109.203203 251.14881,109.836797 249.747203,110.316799 C250.304006,110.624001 250.8224,110.993597 251.302403,111.425599 C251.782405,111.857602 252.214401,112.371196 252.598403,112.966399 L262.332803,128 Z M307.937605,107.091199 C307.937605,110.144015 307.42401,112.975986 306.396805,115.5872 C305.3696,118.198413 303.920014,120.45439 302.048005,122.3552 C300.175995,124.256009 297.924818,125.748794 295.294405,126.8336 C292.663991,127.918405 289.74562,128.4608 286.539204,128.4608 C283.332788,128.4608 280.414417,127.918405 277.784004,126.8336 C275.153591,125.748794 272.897613,124.256009 271.016004,122.3552 C269.134394,120.45439 267.680009,118.198413 266.652803,115.5872 C265.625598,112.975986 265.112003,110.144015 265.112003,107.091199 C265.112003,104.038384 265.625598,101.211212 266.652803,98.6095988 C267.680009,96.0079857 269.134394,93.7568081 271.016004,91.8559986 C272.897613,89.955189 275.153591,88.4624039 277.784004,87.3775984 C280.414417,86.2927929 283.332788,85.7503983 286.539204,85.7503983 C289.74562,85.7503983 292.663991,86.2927929 295.294405,87.3775984 C297.924818,88.4624039 300.175995,89.9599889 302.048005,91.8703986 C303.920014,93.7808082 305.3696,96.0367857 306.396805,98.6383988 C307.42401,101.240012 307.937605,104.057584 307.937605,107.091199 Z M299.096005,107.091199 C299.096005,104.902388 298.808008,102.939208 298.232005,101.201599 C297.656002,99.4639902 296.82561,97.9856049 295.740805,96.7663988 C294.655999,95.5471926 293.340812,94.6160019 291.795204,93.9727986 C290.249597,93.3295954 288.497614,93.0079986 286.539204,93.0079986 C284.580794,93.0079986 282.824012,93.3295954 281.268804,93.9727986 C279.713596,94.6160019 278.393609,95.5471926 277.308804,96.7663988 C276.223998,97.9856049 275.393607,99.4639902 274.817604,101.201599 C274.241601,102.939208 273.953604,104.902388 273.953604,107.091199 C273.953604,109.29921 274.241601,111.271991 274.817604,113.009599 C275.393607,114.747208 276.223998,116.220793 277.308804,117.4304 C278.393609,118.640006 279.713596,119.566396 281.268804,120.2096 C282.824012,120.852803 284.580794,121.1744 286.539204,121.1744 C288.497614,121.1744 290.249597,120.852803 291.795204,120.2096 C293.340812,119.566396 294.655999,118.640006 295.740805,117.4304 C296.82561,116.220793 297.656002,114.747208 298.232005,113.009599 C298.808008,111.271991 299.096005,109.29921 299.096005,107.091199 Z M330.185606,107.004799 C332.89282,107.004799 334.8752,106.352006 336.132806,105.046399 C337.390413,103.740793 338.019206,101.95521 338.019206,99.6895989 C338.019206,98.6527936 337.860808,97.7072031 337.544006,96.8527988 C337.227205,95.9983945 336.747209,95.2688017 336.104006,94.6639987 C335.460803,94.0591956 334.649611,93.5936003 333.670406,93.2671986 C332.691201,92.940797 331.529613,92.7775986 330.185606,92.7775986 L324.713606,92.7775986 L324.713606,107.004799 L330.185606,107.004799 Z M330.185606,86.2111983 C333.04642,86.2111983 335.518396,86.547195 337.601606,87.2191984 C339.684817,87.8912018 341.3984,88.8271924 342.742407,90.0271985 C344.086413,91.2272045 345.080003,92.6527903 345.723207,94.3039987 C346.36641,95.955207 346.688007,97.7503891 346.688007,99.6895989 C346.688007,101.744009 346.35201,103.62559 345.680007,105.334399 C345.008003,107.043208 343.990413,108.511993 342.627207,109.740799 C341.264,110.969605 339.545617,111.924796 337.472006,112.606399 C335.398396,113.288003 332.96962,113.628799 330.185606,113.628799 L324.713606,113.628799 L324.713606,128 L316.073605,128 L316.073605,86.2111983 L330.185606,86.2111983 Z M383.163208,89.3791985 C383.163208,89.8208007 383.091209,90.2671962 382.947208,90.7183985 C382.803207,91.1696008 382.596809,91.5871966 382.328008,91.9711986 L361.707207,121.232 L382.587208,121.232 L382.587208,128 L350.619207,128 L350.619207,124.6304 C350.619207,124.227198 350.686406,123.828802 350.820807,123.4352 C350.955208,123.041598 351.147206,122.681601 351.396807,122.3552 L372.075208,92.9791986 L352.088007,92.9791986 L352.088007,86.2111983 L383.163208,86.2111983 L383.163208,89.3791985 Z M430.26561,107.091199 C430.26561,110.144015 429.752015,112.975986 428.72481,115.5872 C427.697605,118.198413 426.248019,120.45439 424.37601,122.3552 C422.504,124.256009 420.252823,125.748794 417.622409,126.8336 C414.991996,127.918405 412.073625,128.4608 408.867209,128.4608 C405.660793,128.4608 402.742422,127.918405 400.112009,126.8336 C397.481596,125.748794 395.225618,124.256009 393.344009,122.3552 C391.462399,120.45439 390.008014,118.198413 388.980808,115.5872 C387.953603,112.975986 387.440008,110.144015 387.440008,107.091199 C387.440008,104.038384 387.953603,101.211212 388.980808,98.6095988 C390.008014,96.0079857 391.462399,93.7568081 393.344009,91.8559986 C395.225618,89.955189 397.481596,88.4624039 400.112009,87.3775984 C402.742422,86.2927929 405.660793,85.7503983 408.867209,85.7503983 C412.073625,85.7503983 414.991996,86.2927929 417.622409,87.3775984 C420.252823,88.4624039 422.504,89.9599889 424.37601,91.8703986 C426.248019,93.7808082 427.697605,96.0367857 428.72481,98.6383988 C429.752015,101.240012 430.26561,104.057584 430.26561,107.091199 Z M421.42401,107.091199 C421.42401,104.902388 421.136013,102.939208 420.56001,101.201599 C419.984007,99.4639902 419.153615,97.9856049 418.068809,96.7663988 C416.984004,95.5471926 415.668817,94.6160019 414.123209,93.9727986 C412.577602,93.3295954 410.825619,93.0079986 408.867209,93.0079986 C406.908799,93.0079986 405.152017,93.3295954 403.596809,93.9727986 C402.041601,94.6160019 400.721614,95.5471926 399.636809,96.7663988 C398.552003,97.9856049 397.721612,99.4639902 397.145609,101.201599 C396.569606,102.939208 396.281609,104.902388 396.281609,107.091199 C396.281609,109.29921 396.569606,111.271991 397.145609,113.009599 C397.721612,114.747208 398.552003,116.220793 399.636809,117.4304 C400.721614,118.640006 402.041601,119.566396 403.596809,120.2096 C405.152017,120.852803 406.908799,121.1744 408.867209,121.1744 C410.825619,121.1744 412.577602,120.852803 414.123209,120.2096 C415.668817,119.566396 416.984004,118.640006 418.068809,117.4304 C419.153615,116.220793 419.984007,114.747208 420.56001,113.009599 C421.136013,111.271991 421.42401,109.29921 421.42401,107.091199 Z M474.200012,86.2111983 L474.200012,128 L469.736012,128 C469.064008,128 468.497614,127.889601 468.036811,127.6688 C467.576009,127.447999 467.124814,127.068803 466.683211,126.5312 L445.860811,100.035199 C445.918411,100.707202 445.96161,101.369596 445.990411,102.022399 C446.019211,102.675202 446.033611,103.279996 446.033611,103.836799 L446.033611,128 L438.40161,128 L438.40161,86.2111983 L442.95201,86.2111983 C443.316812,86.2111983 443.628809,86.2255982 443.888011,86.2543983 C444.147212,86.2831985 444.382409,86.3503978 444.593611,86.4559983 C444.804812,86.5615989 445.00641,86.7007975 445.198411,86.8735984 C445.390412,87.0463992 445.601609,87.2767969 445.832011,87.5647984 L466.798411,114.175999 C466.721611,113.446396 466.664012,112.740803 466.625611,112.059199 C466.587211,111.377596 466.568011,110.729602 466.568011,110.115199 L466.568011,86.2111983 L474.200012,86.2111983 Z M493.452812,92.9791986 L493.452812,103.721599 L507.392013,103.721599 L507.392013,110.259199 L493.452812,110.259199 L493.452812,121.232 L511.366413,121.232 L511.366413,128 L484.755212,128 L484.755212,86.2111983 L511.366413,86.2111983 L511.366413,92.9791986 L493.452812,92.9791986 Z"/>
  </g>
</svg>
