<svg width="143" height="143" viewBox="0 0 143 143" xmlns="http://www.w3.org/2000/svg" xmlns:xlink="http://www.w3.org/1999/xlink"><title>logo</title><defs><path d="M31.404.88C12.504 6.148 0 15.503 0 28.068 0 48.24 32.221 60.137 71.393 60.137c39.171 0 71.393-11.898 71.393-32.069 0-12.68-12.735-22.091-31.925-27.332L95.617 15.98c6.261 1.046 11.951 2.493 16.78 4.276 4.737 1.749 8.354 3.726 10.568 5.659.845.737 1.394 1.389 1.677 1.899.118.214.133.268.133.254 0-.013-.015.041-.133.255-.283.51-.832 1.162-1.677 1.899-2.214 1.933-5.831 3.91-10.569 5.66-10.558 3.898-25.236 6.19-41.003 6.19-15.768 0-30.445-2.292-41.004-6.19-4.737-1.75-8.355-3.727-10.569-5.66-.845-.737-1.393-1.389-1.676-1.9-.119-.213-.134-.267-.134-.254 0 .014.015-.04.134-.254.283-.51.831-1.162 1.676-1.9 2.214-1.932 5.832-3.91 10.57-5.658 4.681-1.73 10.173-3.142 16.211-4.18L31.404.88z" id="a"/></defs><g fill="none" fill-rule="evenodd"><g transform="translate(0 81.355)"><mask id="b" fill="#fff"><use xlink:href="#a"/></mask><use fill="#D0021B" fill-rule="nonzero" xlink:href="#a"/><path d="M71.141 41.968c37.301 0 67.54-14.771 67.54-34.226s-30.239-35.226-67.54-35.226c-37.3 0-67.539 15.771-67.539 35.226s30.238 34.226 67.54 34.226z" fill-opacity=".186" fill="#000" mask="url(#b)"/></g><path d="M29.732 44.663L70.46 85.514l41.436-41.56 10.835 10.802-52.271 52.428-51.564-51.719 10.835-10.802zm0-43.355L70.46 42.16 111.897.599 122.732 11.4 70.461 63.83 18.897 12.11 29.732 1.308z" fill="#D0021B" fill-rule="nonzero"/></g></svg>