<svg xmlns="http://www.w3.org/2000/svg" width="716" height="142" viewBox="0 0 716 142" fill="none" role="img" aria-label="dropzone">
  <title>dropzone</title>
  <g transform="translate(12 12) scale(1.2292)">
  <rect x="9.5" y="9.5" width="77" height="77" rx="22" fill="none" stroke="#5C4741" stroke-width="5" stroke-linecap="round" stroke-dasharray="13 12"/>
  <g stroke="#F0574A" stroke-width="8" stroke-linecap="round" stroke-linejoin="round" fill="none">
    <path d="M48 29 V62"/>
    <path d="M31 47 L48 65 L65 47"/>
  </g>
  </g>
  <path transform="translate(155.4 103.5)" d="M31.68 1.32L31.68 1.32Q23.23 1.32 17.09-3.10Q10.96-7.52 7.79-15.18Q4.62-22.84 4.62-32.60L4.62-32.60Q4.62-43.43 8.25-50.95Q11.88-58.48 18.08-62.44Q24.29-66.40 31.68-66.40L31.68-66.40Q36.70-66.40 41.12-64.35Q45.54-62.30 48.77-57.88Q52.01-53.46 53.06-46.20L53.06-46.20L49.63-48.05L49.63-92.00L67.72-92.00L67.72 0L49.63 0L49.63-16.76L53.59-19.67Q52.01-11.22 48.44-6.67Q44.88-2.11 40.52-0.40Q36.17 1.32 31.68 1.32ZM37.09-15.31L37.09-15.31Q41.45-15.31 44.62-17.42Q47.78-19.54 49.50-23.43Q51.22-27.32 51.22-32.60L51.22-32.60Q51.22-37.88 49.50-41.71Q47.78-45.54 44.62-47.72Q41.45-49.90 37.09-49.90L37.09-49.90Q32.74-49.90 29.50-47.78Q26.27-45.67 24.49-41.84Q22.70-38.02 22.70-32.60L22.70-32.60Q22.70-27.19 24.49-23.30Q26.27-19.40 29.50-17.36Q32.74-15.31 37.09-15.31ZM99 0L80.92 0L80.92-65.08L99.13-65.08L99.13-47.39L96.62-47.26Q97.02-52.80 99.86-57.16Q102.70-61.51 107.05-63.95Q111.41-66.40 116.03-66.40L116.03-66.40Q119.33-66.40 122.36-65.47Q125.40-64.55 128.83-62.44L128.83-62.44L120.12-46.07Q118.67-46.99 116.36-47.72Q114.05-48.44 111.67-48.44L111.67-48.44Q109.30-48.44 107.05-47.52Q104.81-46.60 103.09-44.81Q101.38-43.03 100.32-40.13L100.32-40.13Q99.66-38.28 99.33-35.44Q99-32.60 99-27.06L99-27.06L99 0ZM166.19 1.32L166.19 1.32Q156.68 1.32 149.16-3.04Q141.64-7.39 137.35-15.11Q133.06-22.84 133.06-32.60L133.06-32.60Q133.06-42.50 137.35-50.16Q141.64-57.82 149.09-62.11Q156.55-66.40 166.19-66.40L166.19-66.40Q175.69-66.40 183.15-62.11Q190.61-57.82 194.90-50.16Q199.19-42.50 199.19-32.60L199.19-32.60Q199.19-22.84 194.90-15.11Q190.61-7.39 183.15-3.04Q175.69 1.32 166.19 1.32ZM166.19-14.52L166.19-14.52Q170.94-14.52 174.24-16.63Q177.54-18.74 179.26-22.84Q180.97-26.93 180.97-32.60L180.97-32.60Q180.97-38.41 179.26-42.37Q177.54-46.33 174.24-48.44Q170.94-50.56 166.19-50.56L166.19-50.56Q161.44-50.56 158.07-48.44Q154.70-46.33 152.92-42.37Q151.14-38.41 151.14-32.60L151.14-32.60Q151.14-26.93 152.92-22.84Q154.70-18.74 158.07-16.63Q161.44-14.52 166.19-14.52ZM227.44 26.93L209.48 26.93L209.48-65.08L227.44-65.08L227.44-48.31L223.48-45.67Q225.19-54.12 228.69-58.61Q232.19-63.10 236.61-64.75Q241.03-66.40 245.39-66.40L245.39-66.40Q253.97-66.40 260.04-61.97Q266.11-57.55 269.35-49.90Q272.58-42.24 272.58-32.47L272.58-32.47Q272.58-21.78 268.88-14.19Q265.19-6.60 259.05-2.64Q252.91 1.32 245.39 1.32L245.39 1.32Q240.50 1.32 236.02-0.66Q231.53-2.64 228.36-7.13Q225.19-11.62 224.00-18.74L224.00-18.74L227.44-17.03L227.44 26.93ZM240.11-15.18L240.11-15.18Q244.46-15.18 247.70-17.29Q250.93-19.40 252.65-23.30Q254.36-27.19 254.36-32.47L254.36-32.47Q254.36-37.88 252.65-41.78Q250.93-45.67 247.70-47.72Q244.46-49.76 240.11-49.76L240.11-49.76Q235.75-49.76 232.52-47.65Q229.28-45.54 227.57-41.71Q225.85-37.88 225.85-32.47L225.85-32.47Q225.85-27.19 227.57-23.36Q229.28-19.54 232.52-17.36Q235.75-15.18 240.11-15.18ZM332.24 0L279.58 0L279.58-11.88L314.03-54.91L315.61-50.03L280.90-50.03L280.90-65.08L332.24-65.08L332.24-52.27L298.32-9.11L296.74-15.18L332.24-15.18L332.24 0ZM372.90 1.32L372.90 1.32Q363.40 1.32 355.87-3.04Q348.35-7.39 344.06-15.11Q339.77-22.84 339.77-32.60L339.77-32.60Q339.77-42.50 344.06-50.16Q348.35-57.82 355.81-62.11Q363.26-66.40 372.90-66.40L372.90-66.40Q382.40-66.40 389.86-62.11Q397.32-57.82 401.61-50.16Q405.90-42.50 405.90-32.60L405.90-32.60Q405.90-22.84 401.61-15.11Q397.32-7.39 389.86-3.04Q382.40 1.32 372.90 1.32ZM372.90-14.52L372.90-14.52Q377.65-14.52 380.95-16.63Q384.25-18.74 385.97-22.84Q387.68-26.93 387.68-32.60L387.68-32.60Q387.68-38.41 385.97-42.37Q384.25-46.33 380.95-48.44Q377.65-50.56 372.90-50.56L372.90-50.56Q368.15-50.56 364.78-48.44Q361.42-46.33 359.63-42.37Q357.85-38.41 357.85-32.60L357.85-32.60Q357.85-26.93 359.63-22.84Q361.42-18.74 364.78-16.63Q368.15-14.52 372.90-14.52ZM434.28 0L416.20 0L416.20-65.08L434.28-65.08L434.28-50.03L431.64-49.90Q433.36-56.10 436.72-59.73Q440.09-63.36 444.44-64.88Q448.80-66.40 453.16-66.40L453.16-66.40Q464.38-66.40 470.65-60.13Q476.92-53.86 476.92-42.90L476.92-42.90L476.92 0L458.70 0L458.70-36.17Q458.70-43.69 455.99-47.19Q453.29-50.69 447.48-50.69L447.48-50.69Q443.12-50.69 440.15-48.58Q437.18-46.46 435.73-42.11Q434.28-37.75 434.28-30.76L434.28-30.76L434.28 0ZM519.02 1.32L519.02 1.32Q510.31 1.32 504.04-1.45Q497.77-4.22 493.88-8.98Q489.98-13.73 488.20-19.73Q486.42-25.74 486.42-32.21L486.42-32.21Q486.42-38.41 488.20-44.48Q489.98-50.56 493.68-55.51Q497.38-60.46 503.45-63.43Q509.52-66.40 517.97-66.40L517.97-66.40Q525.49-66.40 531.23-63.82Q536.98-61.25 540.80-56.69Q544.63-52.14 546.55-45.94Q548.46-39.73 548.46-32.60L548.46-32.60Q548.46-31.42 548.39-29.83Q548.33-28.25 548.06-26.27L548.06-26.27L504.50-26.27Q505.30-20.20 509.65-17.23Q514.01-14.26 520.08-14.26L520.08-14.26Q524.96-14.26 529.85-15.97Q534.73-17.69 538.43-20.86L538.43-20.86L546.74-8.18Q541.86-4.75 537.70-2.64Q533.54-0.53 529.12 0.40Q524.70 1.32 519.02 1.32ZM536.71-39.73L530.64-35.38Q530.90-36.43 531.10-37.49Q531.30-38.54 531.30-39.47L531.30-39.47Q531.30-42.11 530.31-44.29Q529.32-46.46 527.60-48.05Q525.89-49.63 523.51-50.49Q521.14-51.35 518.23-51.35L518.23-51.35Q513.61-51.35 510.64-49.57Q507.67-47.78 506.15-45.14Q504.64-42.50 504.24-39.73L504.24-39.73L536.71-39.73Z" fill="#F6EEEB"/>
</svg>
